<svg xmlns="http://www.w3.org/2000/svg" viewBox="0 0 64 64" role="img" aria-label="FruitSpy icon">
  <defs>
    <linearGradient id="mango-body" x1="22" y1="16" x2="42" y2="54" gradientUnits="userSpaceOnUse">
      <stop offset="0" stop-color="#67c84b"/>
      <stop offset="1" stop-color="#1c8f39"/>
    </linearGradient>
    <linearGradient id="mango-leaf" x1="35" y1="10" x2="48" y2="18" gradientUnits="userSpaceOnUse">
      <stop offset="0" stop-color="#4cad48"/>
      <stop offset="1" stop-color="#2f7f33"/>
    </linearGradient>
  </defs>
  <rect width="64" height="64" rx="14" fill="#ffffff"/>
  <path d="M31.5 13.5c8.3 0 14.8 4.9 16.1 12.2 1.9 10.9-3.8 23.5-13.8 31.3a2.7 2.7 0 0 1-3.3 0c-10-7.9-15.4-20.2-13.6-31.1 1.2-7.4 6.9-12.4 14.6-12.4z" fill="url(#mango-body)"/>
  <path d="M31.7 10.2c2.3-.8 4.6-.6 6.3.8-1.5 1.7-3.7 2.7-6.6 2.8.1-1.3.2-2.3.3-3.6z" fill="#805329"/>
  <path d="M36.3 10.9c5.6-1.7 10.6.9 13.1 6-5.1 1.2-10.4.1-14.6-3.6-.8-.8-1.3-1.4 1.5-2.4z" fill="url(#mango-leaf)"/>
  <path d="M46.6 17.3c-2.7-.2-5.3-1.1-7.4-2.6" fill="none" stroke="#d6f0d0" stroke-linecap="round" stroke-width="1.4"/>
</svg>
